HIERARCHY
ROOT Hips
{
  OFFSET 365.14 88.1684 197.519
  CHANNELS 6 Xposition Yposition Zposition Zrotation Xrotation Yrotation
  JOINT RightUpLeg
  {
    OFFSET -9.25134 -1.53971 -0.0324706
    CHANNELS 6 Xposition Yposition Zposition Zrotation Xrotation Yrotation
    JOINT RightLeg
    {
      OFFSET 0.00425615 -41.8809 0.0674633
      CHANNELS 6 Xposition Yposition Zposition Zrotation Xrotation Yrotation
      JOINT RightFoot
      {
        OFFSET 0.58129 -42.7595 -0.0996806
        CHANNELS 6 Xposition Yposition Zposition Zrotation Xrotation Yrotation
        End Site
        {
          OFFSET 0 -7.69 17.5
        }
      }
    }
  }
  JOINT LeftUpLeg
  {
    OFFSET 9.27841 -1.63567 0.0208533
    CHANNELS 6 Xposition Yposition Zposition Zrotation Xrotation Yrotation
    JOINT LeftLeg
    {
      OFFSET 0.0368418 -41.8969 -0.0246917
      CHANNELS 6 Xposition Yposition Zposition Zrotation Xrotation Yrotation
      JOINT LeftFoot
      {
        OFFSET -0.005132 -40.7663 0.276477
        CHANNELS 6 Xposition Yposition Zposition Zrotation Xrotation Yrotation
        End Site
        {
          OFFSET 0 -7.69 17.5
        }
      }
    }
  }
  JOINT Spine
  {
    OFFSET 0.0273715 14.2973 0.0132618
    CHANNELS 6 Xposition Yposition Zposition Zrotation Xrotation Yrotation
    JOINT Spine1
    {
      OFFSET 0.0356242 9.71856 0.0117599
      CHANNELS 6 Xposition Yposition Zposition Zrotation Xrotation Yrotation
      JOINT Spine2
      {
        OFFSET 0.0265435 10.1205 -0.00131286
        CHANNELS 6 Xposition Yposition Zposition Zrotation Xrotation Yrotation
        JOINT Spine3
        {
          OFFSET 0.0373809 9.71499 0.00890364
          CHANNELS 6 Xposition Yposition Zposition Zrotation Xrotation Yrotation
          JOINT Neck
          {
            OFFSET 0.0718734 10.3849 0.103433
            CHANNELS 6 Xposition Yposition Zposition Zrotation Xrotation Yrotation
            JOINT Head
            {
              OFFSET 0.0694951 9.46555 0.0801324
              CHANNELS 6 Xposition Yposition Zposition Zrotation Xrotation Yrotation
              End Site
              {
                OFFSET 0 15.95 0
              }
            }
          }
          JOINT RightShoulder
          {
            OFFSET -3.17077 6.92615 0.0206421
            CHANNELS 6 Xposition Yposition Zposition Zrotation Xrotation Yrotation
            JOINT RightArm
            {
              OFFSET -12.8009 0.045143 0.0503553
              CHANNELS 6 Xposition Yposition Zposition Zrotation Xrotation Yrotation
              JOINT RightForeArm
              {
                OFFSET -26.5131 -0.00460937 0.0547871
                CHANNELS 6 Xposition Yposition Zposition Zrotation Xrotation Yrotation
                JOINT RightHand
                {
                  OFFSET -26.0399 0.339815 -0.212656
                  CHANNELS 6 Xposition Yposition Zposition Zrotation Xrotation Yrotation
                  JOINT RightHandThumb1
                  {
                    OFFSET -2.48905 0.190105 3.12053
                    CHANNELS 6 Xposition Yposition Zposition Zrotation Xrotation Yrotation
                    JOINT RightHandThumb2
                    {
                      OFFSET -3.68274 0 0
                      CHANNELS 6 Xposition Yposition Zposition Zrotation Xrotation Yrotation
                      JOINT RightHandThumb3
                      {
                        OFFSET -2.55832 0 0
                        CHANNELS 6 Xposition Yposition Zposition Zrotation Xrotation Yrotation
                        End Site
                        {
                          OFFSET -2.194 0 0
                        }
                      }
                    }
                  }
                  JOINT RightInHandIndex
                  {
                    OFFSET -3.22368 0.508421 1.97842
                    CHANNELS 6 Xposition Yposition Zposition Zrotation Xrotation Yrotation
                    JOINT RightHandIndex1
                    {
                      OFFSET -5.21684 -0.091368 0.999158
                      CHANNELS 6 Xposition Yposition Zposition Zrotation Xrotation Yrotation
                      JOINT RightHandIndex2
                      {
                        OFFSET -3.61937 0 0
                        CHANNELS 6 Xposition Yposition Zposition Zrotation Xrotation Yrotation
                        JOINT RightHandIndex3
                        {
                          OFFSET -2.0521 0 0
                          CHANNELS 6 Xposition Yposition Zposition Zrotation Xrotation Yrotation
                          End Site
                          {
                            OFFSET -1.805 0 0
                          }
                        }
                      }
                    }
                  }
                  JOINT RightInHandMiddle
                  {
                    OFFSET -3.38211 0.517263 0.756737
                    CHANNELS 6 Xposition Yposition Zposition Zrotation Xrotation Yrotation
                    JOINT RightHandMiddle1
                    {
                      OFFSET -5.17411 -0.084 0.313895
                      CHANNELS 6 Xposition Yposition Zposition Zrotation Xrotation Yrotation
                      JOINT RightHandMiddle2
                      {
                        OFFSET -3.94947 0 0
                        CHANNELS 6 Xposition Yposition Zposition Zrotation Xrotation Yrotation
                        JOINT RightHandMiddle3
                        {
                          OFFSET -2.47579 0 0
                          CHANNELS 6 Xposition Yposition Zposition Zrotation Xrotation Yrotation
                          End Site
                          {
                            OFFSET -1.975 0 0
                          }
                        }
                      }
                    }
                  }
                  JOINT RightInHandRing
                  {
                    OFFSET -3.36516 0.537895 -0.128947
                    CHANNELS 6 Xposition Yposition Zposition Zrotation Xrotation Yrotation
                    JOINT RightHandRing1
                    {
                      OFFSET -4.63474 -0.022105 -0.478947
                      CHANNELS 6 Xposition Yposition Zposition Zrotation Xrotation Yrotation
                      JOINT RightHandRing2
                      {
                        OFFSET -3.44238 0 0
                        CHANNELS 6 Xposition Yposition Zposition Zrotation Xrotation Yrotation
                        JOINT RightHandRing3
                        {
                          OFFSET -2.3881 0 0
                          CHANNELS 6 Xposition Yposition Zposition Zrotation Xrotation Yrotation
                          End Site
                          {
                            OFFSET -1.857 0 0
                          }
                        }
                      }
                    }
                  }
                  JOINT RightInHandPinky
                  {
                    OFFSET -3.16105 0.469368 -1.20179
                    CHANNELS 6 Xposition Yposition Zposition Zrotation Xrotation Yrotation
                    JOINT RightHandPinky1
                    {
                      OFFSET -4.14105 -0.022105 -1.09053
                      CHANNELS 6 Xposition Yposition Zposition Zrotation Xrotation Yrotation
                      JOINT RightHandPinky2
                      {
                        OFFSET -2.75653 0 0
                        CHANNELS 6 Xposition Yposition Zposition Zrotation Xrotation Yrotation
                        JOINT RightHandPinky3
                        {
                          OFFSET -1.74189 0 0
                          CHANNELS 6 Xposition Yposition Zposition Zrotation Xrotation Yrotation
                          End Site
                          {
                            OFFSET -1.645 0 0
                          }
                        }
                      }
                    }
                  }
                }
              }
            }
          }
          JOINT LeftShoulder
          {
            OFFSET 3.24206 6.90465 -0.0188506
            CHANNELS 6 Xposition Yposition Zposition Zrotation Xrotation Yrotation
            JOINT LeftArm
            {
              OFFSET 12.8376 -0.0128309 -0.0438741
              CHANNELS 6 Xposition Yposition Zposition Zrotation Xrotation Yrotation
              JOINT LeftForeArm
              {
                OFFSET 26.5076 -0.0124854 -0.0131797
                CHANNELS 6 Xposition Yposition Zposition Zrotation Xrotation Yrotation
                JOINT LeftHand
                {
                  OFFSET 25.9948 -0.0840125 0.0167125
                  CHANNELS 6 Xposition Yposition Zposition Zrotation Xrotation Yrotation
                  JOINT LeftHandThumb1
                  {
                    OFFSET 2.48905 0.190105 3.12053
                    CHANNELS 6 Xposition Yposition Zposition Zrotation Xrotation Yrotation
                    JOINT LeftHandThumb2
                    {
                      OFFSET 3.68274 0 0
                      CHANNELS 6 Xposition Yposition Zposition Zrotation Xrotation Yrotation
                      JOINT LeftHandThumb3
                      {
                        OFFSET 2.55832 0 0
                        CHANNELS 6 Xposition Yposition Zposition Zrotation Xrotation Yrotation
                        End Site
                        {
                          OFFSET 2.194 0 0
                        }
                      }
                    }
                  }
                  JOINT LeftInHandIndex
                  {
                    OFFSET 3.22368 0.508421 1.97842
                    CHANNELS 6 Xposition Yposition Zposition Zrotation Xrotation Yrotation
                    JOINT LeftHandIndex1
                    {
                      OFFSET 5.21684 -0.091368 0.999158
                      CHANNELS 6 Xposition Yposition Zposition Zrotation Xrotation Yrotation
                      JOINT LeftHandIndex2
                      {
                        OFFSET 3.61937 0 0
                        CHANNELS 6 Xposition Yposition Zposition Zrotation Xrotation Yrotation
                        JOINT LeftHandIndex3
                        {
                          OFFSET 2.0521 0 0
                          CHANNELS 6 Xposition Yposition Zposition Zrotation Xrotation Yrotation
                          End Site
                          {
                            OFFSET 1.805 0 0
                          }
                        }
                      }
                    }
                  }
                  JOINT LeftInHandMiddle
                  {
                    OFFSET 3.38211 0.517263 0.756737
                    CHANNELS 6 Xposition Yposition Zposition Zrotation Xrotation Yrotation
                    JOINT LeftHandMiddle1
                    {
                      OFFSET 5.17411 -0.084 0.313895
                      CHANNELS 6 Xposition Yposition Zposition Zrotation Xrotation Yrotation
                      JOINT LeftHandMiddle2
                      {
                        OFFSET 3.94947 0 0
                        CHANNELS 6 Xposition Yposition Zposition Zrotation Xrotation Yrotation
                        JOINT LeftHandMiddle3
                        {
                          OFFSET 2.47579 0 0
                          CHANNELS 6 Xposition Yposition Zposition Zrotation Xrotation Yrotation
                          End Site
                          {
                            OFFSET 1.975 0 0
                          }
                        }
                      }
                    }
                  }
                  JOINT LeftInHandRing
                  {
                    OFFSET 3.36516 0.537895 -0.128947
                    CHANNELS 6 Xposition Yposition Zposition Zrotation Xrotation Yrotation
                    JOINT LeftHandRing1
                    {
                      OFFSET 4.63474 -0.022105 -0.478947
                      CHANNELS 6 Xposition Yposition Zposition Zrotation Xrotation Yrotation
                      JOINT LeftHandRing2
                      {
                        OFFSET 3.44238 0 0
                        CHANNELS 6 Xposition Yposition Zposition Zrotation Xrotation Yrotation
                        JOINT LeftHandRing3
                        {
                          OFFSET 2.3881 0 0
                          CHANNELS 6 Xposition Yposition Zposition Zrotation Xrotation Yrotation
                          End Site
                          {
                            OFFSET 1.857 0 0
                          }
                        }
                      }
                    }
                  }
                  JOINT LeftInHandPinky
                  {
                    OFFSET 3.16105 0.469368 -1.20179
                    CHANNELS 6 Xposition Yposition Zposition Zrotation Xrotation Yrotation
                    JOINT LeftHandPinky1
                    {
                      OFFSET 4.14105 -0.022105 -1.09053
                      CHANNELS 6 Xposition Yposition Zposition Zrotation Xrotation Yrotation
                      JOINT LeftHandPinky2
                      {
                        OFFSET 2.75653 0 0
                        CHANNELS 6 Xposition Yposition Zposition Zrotation Xrotation Yrotation
                        JOINT LeftHandPinky3
                        {
                          OFFSET 1.74189 0 0
                          CHANNELS 6 Xposition Yposition Zposition Zrotation Xrotation Yrotation
                          End Site
                          {
                            OFFSET 1.645 0 0
                          }
                        }
                      }
                    }
                  }
                }
              }
            }
          }
        }
      }
    }
  }
}
MOTION
Frames:	3
Frame Time:	0.00416667
359.772 87.7985 213.526 15.3756 -0.30144 -116.236 -9.27713 -1.61293 0.0350646 7.72597 -41.7947 16.5055 0.0778578 -41.8856 -0.0431446 -2.88 4.40729 -3.94322 -0.227953 -43.7175 -1.76884 17.4564 20.272 40.7851 9.31515 -1.57599 -0.114129 17.8983 -20.6836 14.3374 0.154783 -41.8931 -0.0452573 -16.8933 35.0872 25.7271 -1.19419 -40.3435 -2.35966 -2.7677 -24.524 1.19086 0.116268 14.2849 0.189992 3.88198 8.99907 3.94532 0.0648418 9.70846 0.0759648 1.02168 2.02259 1.16662 0.030754 10.1202 -0.0125279 1.67864 3.17418 2.00418 0.0365949 9.71469 0.0576208 -1.30799 -0.441044 1.51783 0.346557 10.3284 0.18507 -2.16106 -1.63663 3.90276 0.243686 9.55712 0.362412 -24.1387 -4.41012 27.7107 -3.17355 6.91275 0.0649647 4.04712 -1.33218 5.4521 -12.7429 -0.0395321 -0.0102594 90.6732 -44.0664 49.7107 -25.286 1.8954 0.499427 78.6258 -3.34084 77.8723 -26.0107 -0.818546 2.06497 22.8128 -4.63653 21.4719 -2.48905 0.190105 3.12053 28.184 10.7294 19.1592 -3.68274 0 -5.68434e-14 -5.12484e-15 -1.59028e-15 -10 -2.55832 0 0 1.3344e-15 -1.59028e-15 -10 -3.22368 0.508421 1.97842 -3.18055e-15 -3.18055e-15 -0 -5.21684 -0.091368 0.999158 19.9818 0.871897 2.3964 -3.61937 -5.68434e-14 0 24 -3.18055e-15 -4.12478e-15 -2.0521 0 0 20 3.18055e-15 3.18055e-15 -3.38211 0.517263 0.756737 -3.18055e-15 -3.18055e-15 -0 -5.17411 -0.084 0.313895 20 0 -1.59028e-15 -3.94947 0 -2.84217e-14 24 0 -4.07509e-15 -2.47579 0 0 20 3.18055e-15 -1.59028e-15 -3.36516 0.537895 -0.128947 -3.18055e-15 -3.18055e-15 -0 -4.63474 -0.022105 -0.478947 19.9748 -1.02565 -2.81938 -3.44238 0 -5.68434e-14 24 -3.18055e-15 1.39149e-15 -2.3881 -5.68434e-14 2.84217e-14 20 -3.18055e-15 4.77083e-15 -3.16105 0.469368 -1.20179 -3.18055e-15 -3.18055e-15 -0 -4.14105 -0.022105 -1.09053 19.7815 -3.00948 -8.30515 -2.75653 5.68434e-14 -5.68434e-14 24 9.54166e-15 5.1684e-15 -1.74189 0 2.84217e-14 20 -6.36111e-15 -0 3.22214 6.90118 0.0199324 4.78237 -19.5278 -55.988 12.7896 -0.0307028 -0.0383657 -8.46578 26.9191 -100.618 26.4894 -0.0482825 -0.0116335 25.9082 5.73446 -5.0007 25.9307 -0.0896457 -0.160565 -20.7772 -13.7854 -2.84999 2.48905 0.190105 3.12053 -28.184 10.7294 -19.1592 3.68274 -1.42109e-14 5.68434e-14 5.60818e-16 -3.18055e-15 10 2.55832 0 0 -9.40845e-15 -1.59028e-15 10 3.22368 0.508421 1.97842 0 1.59028e-15 -0 5.21684 -0.091368 0.999158 -19.9818 0.871897 -2.3964 3.61937 0 -5.68434e-14 -24 3.97569e-15 -4.27387e-15 2.0521 0 5.68434e-14 -20 0 -5.58461e-15 3.38211 0.517263 0.756737 0 1.59028e-15 -0 5.17411 -0.084 0.313895 -20 -7.95139e-16 -9.14409e-15 3.94947 0 0 -24 -3.97569e-15 -7.95139e-16 2.47579 2.84217e-14 0 -20 -2.38542e-15 -4.91992e-15 3.36516 0.537895 -0.128947 0 1.59028e-15 -0 4.63474 -0.022105 -0.478947 -19.9748 -1.02565 2.81938 3.44238 0 5.68434e-14 -24 7.95139e-16 -5.56597e-15 2.3881 -2.84217e-14 -5.68434e-14 -20 0 -1.49089e-15 3.16105 0.469368 -1.20179 0 1.59028e-15 -0 4.14105 -0.022105 -1.09053 -19.7815 -3.00948 8.30515 2.75653 0 -5.68434e-14 -24 -7.95139e-15 -1.07344e-14 1.74189 2.84217e-14 5.68434e-14 -20 -1.59028e-15 -1.07344e-14 
359.692 87.7972 213.463 15.3871 -0.246983 -116.416 -9.27658 -1.61451 0.034539 7.9419 -41.7318 16.6931 0.0777398 -41.8864 -0.0368499 -2.92459 4.43485 -3.9107 -0.191066 -43.6975 -1.78125 17.5605 20.2209 40.7687 9.32264 -1.58185 -0.135781 18.0158 -20.6128 14.5116 0.165909 -41.8929 -0.0720902 -16.8972 35.1973 25.6503 -1.18566 -40.3502 -2.34554 -2.75332 -24.6134 1.28868 0.117111 14.285 0.189939 3.94049 8.88508 3.77201 0.0645392 9.70894 0.0758996 1.03326 2.00325 1.12213 0.0313595 10.1202 -0.0155504 1.69835 3.14906 1.93018 0.0374365 9.71469 0.0561272 -1.30777 -0.448842 1.53833 0.342517 10.3288 0.184195 -2.24496 -1.78797 4.21663 0.237669 9.55552 0.36256 -24.0808 -4.27658 27.9505 -3.17356 6.91215 0.0631169 4.09003 -1.31497 5.31813 -12.7453 -0.0392525 -0.0105177 90.642 -44.4622 49.927 -25.3622 1.81372 0.506736 78.4267 -3.00378 77.9249 -26.0438 -0.751631 1.97246 22.6599 -4.43205 21.5654 -2.48905 0.190105 3.12053 28.184 10.7294 19.1592 -3.68274 0 -5.68434e-14 2.6688e-15 -3.18055e-15 -10 -2.55832 0 -5.68434e-14 2.80409e-16 1.59028e-15 -10 -3.22368 0.508421 1.97842 3.18055e-15 6.36111e-15 -0 -5.21684 -0.091368 0.999158 19.9818 0.871897 2.3964 -3.61937 5.68434e-14 0 24 3.18055e-15 1.48095e-14 -2.0521 0 1.13687e-13 20 9.54166e-15 6.36111e-15 -3.38211 0.517263 0.756737 3.18055e-15 6.36111e-15 -0 -5.17411 -0.084 0.313895 20 9.54166e-15 9.54166e-15 -3.94947 0 -5.68434e-14 24 9.54166e-15 1.17283e-14 -2.47579 0 2.84217e-14 20 -6.36111e-15 4.77083e-15 -3.36516 0.537895 -0.128947 3.18055e-15 6.36111e-15 -0 -4.63474 -0.022105 -0.478947 19.9748 -1.02565 -2.81938 -3.44238 0 0 24 6.36111e-15 1.53064e-14 -2.3881 0 8.52651e-14 20 3.18055e-15 1.11319e-14 -3.16105 0.469368 -1.20179 3.18055e-15 6.36111e-15 -0 -4.14105 -0.022105 -1.09053 19.7815 -3.00948 -8.30515 -2.75653 0 0 24 3.18055e-15 3.18055e-15 -1.74189 0 -2.84217e-14 20 0 3.18055e-15 3.22242 6.90209 0.0200398 4.74683 -19.6309 -56.1502 12.673 0.0441953 -0.032635 -8.98876 27.1087 -99.9581 26.4894 0.00506962 0.115099 26.3391 5.7333 -6.00963 25.9276 -0.0852015 -0.152022 -20.7286 -13.6077 -3.13473 2.48905 0.190105 3.12053 -28.184 10.7294 -19.1592 3.68274 -1.42109e-14 -5.68434e-14 -8.56722e-15 -6.36111e-15 10 2.55832 -1.42109e-14 0 -8.41226e-16 4.77083e-15 10 3.22368 0.508421 1.97842 0 2.18663e-15 -0 5.21684 -0.091368 0.999158 -19.9818 0.871897 -2.3964 3.61937 0 0 -24 -5.86415e-15 4.22417e-16 2.0521 0 0 -20 -3.13086e-15 3.22093e-15 3.38211 0.517263 0.756737 0 2.18663e-15 -0 5.17411 -0.084 0.313895 -20 -4.77083e-15 -7.95139e-16 3.94947 0 -5.68434e-14 -24 -2.78299e-15 2.08724e-15 2.47579 2.84217e-14 -5.68434e-14 -20 -1.98785e-15 -5.71506e-16 3.36516 0.537895 -0.128947 0 2.18663e-15 -0 4.63474 -0.022105 -0.478947 -19.9748 -1.02565 2.81938 3.44238 0 0 -24 -7.95139e-15 2.06736e-14 2.3881 -5.68434e-14 0 -20 -7.95139e-16 9.21864e-15 3.16105 0.469368 -1.20179 0 2.18663e-15 -0 4.14105 -0.022105 -1.09053 -19.7815 -3.00948 8.30515 2.75653 0 0 -24 4.77083e-15 7.95139e-15 1.74189 0 0 -20 -1.59028e-15 -6.95746e-16 
359.61 87.7958 213.4 15.39 -0.217093 -116.596 -9.27574 -1.61463 0.034018 8.13239 -41.6693 16.8906 0.076401 -41.8874 -0.030429 -2.96443 4.46258 -3.88278 -0.158751 -43.6764 -1.79189 17.6571 20.1665 40.7512 9.33171 -1.59011 -0.161648 18.1046 -20.556 14.7093 0.179046 -41.8928 -0.101506 -16.8815 35.3211 25.5523 -1.17866 -40.361 -2.33444 -2.74072 -24.6979 1.38361 0.118659 14.285 0.189906 3.98114 8.76827 3.60067 0.0642373 9.70945 0.0758527 1.04048 1.98349 1.07738 0.0319129 10.1202 -0.0184752 1.71088 3.12349 1.8555 0.038248 9.71469 0.0545629 -1.30749 -0.456565 1.55876 0.338387 10.3294 0.183398 -2.32731 -1.94142 4.53876 0.231142 9.55387 0.362707 -24.0205 -4.1371 28.1837 -3.17357 6.91158 0.061362 4.12871 -1.29849 5.18596 -12.747 -0.0389963 -0.0107607 90.6116 -44.8461 50.1343 -25.4363 1.72936 0.508854 78.2243 -2.56352 77.9733 -26.0775 -0.682269 1.88053 22.4871 -4.24215 21.6448 -2.48905 0.190105 3.12053 28.184 10.7294 19.1592 -3.68274 0 -5.68434e-14 -5.61801e-15 4.77083e-15 -10 -2.55832 -2.84217e-14 0 5.40525e-15 3.18055e-15 -10 -3.22368 0.508421 1.97842 -6.36111e-15 -3.18055e-15 -0 -5.21684 -0.091368 0.999158 19.9818 0.871897 2.3964 -3.61937 0 0 24 -6.36111e-15 8.54774e-15 -2.0521 0 5.68434e-14 20 -3.18055e-15 3.18055e-15 -3.38211 0.517263 0.756737 -6.36111e-15 -3.18055e-15 -0 -5.17411 -0.084 0.313895 20 0 4.77083e-15 -3.94947 0 -8.52651e-14 24 3.18055e-15 6.36111e-15 -2.47579 0 -8.52651e-14 20 6.36111e-15 1.27222e-14 -3.36516 0.537895 -0.128947 -6.36111e-15 -3.18055e-15 -0 -4.63474 -0.022105 -0.478947 19.9748 -1.02565 -2.81938 -3.44238 0 0 24 -3.18055e-15 5.56597e-15 -2.3881 5.68434e-14 0 20 9.54166e-15 3.18055e-15 -3.16105 0.469368 -1.20179 -6.36111e-15 -3.18055e-15 -0 -4.14105 -0.022105 -1.09053 19.7815 -3.00948 -8.30515 -2.75653 0 0 24 3.18055e-15 3.97569e-16 -1.74189 0 -2.84217e-14 20 6.36111e-15 3.18055e-15 3.22268 6.90298 0.0201444 4.7229 -19.7377 -56.3056 12.5455 0.127526 -0.0235998 -9.57911 27.3241 -99.1965 26.4894 0.0627774 0.254202 26.8064 5.73509 -7.10686 25.9249 -0.0809268 -0.14382 -20.6908 -13.4393 -3.4178 2.48905 0.190105 3.12053 -28.184 10.7294 -19.1592 3.68274 -1.42109e-14 -5.68434e-14 -3.79044e-15 3.18055e-15 10 2.55832 -1.42109e-14 0 -2.10798e-15 -6.36111e-15 10 3.22368 0.508421 1.97842 -3.18055e-15 4.67144e-15 -1.59028e-15 5.21684 -0.091368 0.999158 -19.9818 0.871897 -2.3964 3.61937 0 5.68434e-14 -24 1.39149e-15 3.18055e-15 2.0521 0 -5.68434e-14 -20 1.59028e-15 -5.52559e-15 3.38211 0.517263 0.756737 -3.18055e-15 4.67144e-15 -1.59028e-15 5.17411 -0.084 0.313895 -20 3.18055e-15 -7.25564e-15 3.94947 0 0 -24 9.93923e-16 -1.82385e-14 2.47579 2.84217e-14 0 -20 -2.18663e-15 -4.33599e-15 3.36516 0.537895 -0.128947 -3.18055e-15 4.67144e-15 -1.59028e-15 4.63474 -0.022105 -0.478947 -19.9748 -1.02565 2.81938 3.44238 -2.84217e-14 0 -24 -7.95139e-16 -1.23246e-14 2.3881 0 -5.68434e-14 -20 2.38542e-15 9.93923e-17 3.16105 0.469368 -1.20179 -3.18055e-15 4.67144e-15 -1.59028e-15 4.14105 -0.022105 -1.09053 -19.7815 -3.00948 8.30515 2.75653 0 0 -24 1.11319e-14 -1.03368e-14 1.74189 2.84217e-14 -5.68434e-14 -20 0 -9.93923e-17 
